HIERARCHY
ROOT joint_0
{
	OFFSET 0.000000 0.000000 0.000000
	CHANNELS 6 Xposition Yposition Zposition Zrotation Yrotation Xrotation 
	JOINT joint_1
	{
		OFFSET 0.587158 0.057678 95.682007
		CHANNELS 3 Zrotation Yrotation Xrotation
		JOINT joint_2
		{
			OFFSET -7.116699 -0.219910 87.157959
			CHANNELS 3 Zrotation Yrotation Xrotation
			JOINT joint_3
			{
				OFFSET -5.892822 -0.290222 87.151001
				CHANNELS 3 Zrotation Yrotation Xrotation
				JOINT joint_4
				{
					OFFSET 5.544678 -0.099609 123.768066
					CHANNELS 3 Zrotation Yrotation Xrotation
					JOINT joint_5
					{
						OFFSET 41.981201 4.519775 84.257935
						CHANNELS 3 Zrotation Yrotation Xrotation
						End Site
						{
							OFFSET 0.000000 0.000000 0.000000
						}
					}
				}
				JOINT joint_6
				{
					OFFSET 3.940918 -26.976501 69.308105
					CHANNELS 3 Zrotation Yrotation Xrotation
					JOINT joint_7
					{
						OFFSET 4.776123 -152.592468 -16.842041
						CHANNELS 3 Zrotation Yrotation Xrotation
						JOINT joint_8
						{
							OFFSET 54.421875 -30.424072 -248.864014
							CHANNELS 3 Zrotation Yrotation Xrotation
							JOINT joint_9
							{
								OFFSET 42.120117 -33.387878 -236.524963
								CHANNELS 3 Zrotation Yrotation Xrotation
								End Site
								{
									OFFSET 0.000000 0.000000 0.000000
								}
							}
						}
					}
				}
				JOINT joint_10
				{
					OFFSET 2.312012 26.904114 69.425049
					CHANNELS 3 Zrotation Yrotation Xrotation
					JOINT joint_11
					{
						OFFSET 0.971436 152.197815 -20.626953
						CHANNELS 3 Zrotation Yrotation Xrotation
						JOINT joint_12
						{
							OFFSET 49.954102 28.991455 -249.970093
							CHANNELS 3 Zrotation Yrotation Xrotation
							JOINT joint_13
							{
								OFFSET 48.146973 19.598389 -236.919922
								CHANNELS 3 Zrotation Yrotation Xrotation
								End Site
								{
									OFFSET 0.000000 0.000000 0.000000
								}
							}
						}
					}
				}
			}
		}
	}
	JOINT joint_14
	{
		OFFSET 16.305664 -89.442932 -108.224976
		CHANNELS 3 Zrotation Yrotation Xrotation
		JOINT joint_15
		{
			OFFSET -22.282471 13.437134 -412.904968
			CHANNELS 3 Zrotation Yrotation Xrotation
			JOINT joint_16
			{
				OFFSET -45.426025 14.484802 -445.892029
				CHANNELS 3 Zrotation Yrotation Xrotation
				JOINT joint_17
				{
					OFFSET 173.389404 -9.944031 -76.473001
					CHANNELS 3 Zrotation Yrotation Xrotation
					End Site
					{
						OFFSET 0.000000 0.000000 0.000000
					}
				}
			}
		}
	}
	JOINT joint_18
	{
		OFFSET 13.392822 89.408875 -108.653992
		CHANNELS 3 Zrotation Yrotation Xrotation
		JOINT joint_19
		{
			OFFSET -29.032959 24.483521 -411.977966
			CHANNELS 3 Zrotation Yrotation Xrotation
			JOINT joint_20
			{
				OFFSET -30.530029 28.986328 -446.453018
				CHANNELS 3 Zrotation Yrotation Xrotation
				JOINT joint_21
				{
					OFFSET 170.330078 33.400757 -76.698997
					CHANNELS 3 Zrotation Yrotation Xrotation
					End Site
					{
						OFFSET 0.000000 0.000000 0.000000
					}
				}
			}
		}
	}
}
MOTION
Frames: 18
Frame Time: 0.016667
-1824.600708 922.528748 1057.040039 4.222820 -1.467197 1.889647 -0.382911 5.542844 -1.701948 -0.265798 -1.091697 0.414599 -0.311808 1.004925 -0.269968 0.789193 4.828824 -2.164078 0.000000 0.000000 0.000000 0.197985 -0.406604 -0.264101 0.092399 -0.391813 -0.165343 0.370429 -3.452143 -0.598120 0.000000 0.000000 0.000000 1.819187 -0.344245 -0.259715 -0.039919 -0.596532 -0.093514 0.228444 -1.517964 1.805064 0.000000 0.000000 0.000000 1.551602 0.887376 -4.509532 1.479919 7.064547 0.838878 1.210118 -7.133261 0.119951 0.000000 0.000000 0.000000 1.942995 -0.023465 -0.143623 2.001762 1.374019 0.199532 1.889578 0.161825 0.815655 0.000000 0.000000 0.000000 
-1824.769165 922.614685 1057.057983 4.255751 -1.482474 1.885843 -0.386578 5.526214 -1.718460 -0.267779 -1.087093 0.419123 -0.314335 1.000177 -0.272415 0.790113 4.840214 -2.167249 0.000000 0.000000 0.000000 0.222204 -0.369039 -0.269177 0.099555 -0.350213 -0.099905 0.371134 -3.415112 -0.565910 0.000000 0.000000 0.000000 1.814521 -0.336085 -0.286354 -0.071233 -0.590824 -0.288461 0.145944 -1.776068 1.506333 0.000000 0.000000 0.000000 1.541739 0.894581 -4.510511 1.469919 7.068601 0.838509 1.200979 -7.125137 0.116397 0.000000 0.000000 0.000000 1.934637 -0.021706 -0.143198 1.993597 1.372829 0.194555 1.881877 0.168508 0.810910 0.000000 0.000000 0.000000 
-1824.937012 922.681580 1057.074951 4.288738 -1.495272 1.879810 -0.388788 5.504556 -1.730318 -0.268826 -1.082829 0.421088 -0.315641 0.995956 -0.273455 0.791803 4.853950 -2.172417 0.000000 0.000000 0.000000 0.246661 -0.317800 -0.270121 0.107048 -0.294792 -0.024994 0.365786 -3.345396 -0.543198 0.000000 0.000000 0.000000 1.813848 -0.326358 -0.310690 -0.100549 -0.583889 -0.469712 0.063554 -2.018740 1.203502 0.000000 0.000000 0.000000 1.531889 0.898164 -4.509323 1.460055 7.073939 0.840845 1.192228 -7.117783 0.112966 0.000000 0.000000 0.000000 1.925891 -0.021231 -0.138548 1.985342 1.368570 0.188327 1.874323 0.177220 0.805833 0.000000 0.000000 0.000000 
-1825.106934 922.738281 1057.090942 4.321099 -1.508839 1.872586 -0.390798 5.483274 -1.738305 -0.270121 -1.076443 0.421004 -0.316924 0.989874 -0.272670 0.795027 4.866560 -2.180609 0.000000 0.000000 0.000000 0.271804 -0.258999 -0.269586 0.115748 -0.231667 0.058122 0.353290 -3.246396 -0.538602 0.000000 0.000000 0.000000 1.817101 -0.316524 -0.332740 -0.127656 -0.577168 -0.633965 -0.012251 -2.232364 0.922552 0.000000 0.000000 0.000000 1.522101 0.904601 -4.507710 1.449874 7.075191 0.846137 1.183468 -7.110349 0.109539 0.000000 0.000000 0.000000 1.917052 -0.020891 -0.131979 1.977217 1.365928 0.182448 1.866794 0.185463 0.800857 0.000000 0.000000 0.000000 
-1825.280151 922.786621 1057.109009 4.354946 -1.523648 1.865038 -0.392596 5.465992 -1.745151 -0.271021 -1.073577 0.423909 -0.318152 0.987699 -0.274101 0.798618 4.872542 -2.188764 0.000000 0.000000 0.000000 0.295397 -0.194003 -0.265540 0.126248 -0.162546 0.150474 0.331906 -3.113140 -0.557983 0.000000 0.000000 0.000000 1.822159 -0.309496 -0.349533 -0.153381 -0.573351 -0.783670 -0.080161 -2.410473 0.666524 0.000000 0.000000 0.000000 1.511721 0.914499 -4.507903 1.438507 7.072418 0.856618 1.174124 -7.102631 0.105871 0.000000 0.000000 0.000000 1.907720 -0.021698 -0.124102 1.969039 1.367062 0.175947 1.858930 0.193244 0.795820 0.000000 0.000000 0.000000 
-1825.456421 922.825684 1057.125977 4.388002 -1.539125 1.856484 -0.393711 5.450159 -1.747274 -0.271848 -1.070586 0.423707 -0.318981 0.984692 -0.273932 0.803198 4.876333 -2.198700 0.000000 0.000000 0.000000 0.318356 -0.121597 -0.258960 0.137736 -0.086047 0.250275 0.303354 -2.950112 -0.594897 0.000000 0.000000 0.000000 1.830316 -0.302632 -0.361708 -0.177127 -0.569900 -0.918532 -0.141251 -2.559663 0.432585 0.000000 0.000000 0.000000 1.501676 0.926832 -4.507883 1.427125 7.066095 0.869915 1.165053 -7.094754 0.102335 0.000000 0.000000 0.000000 1.898551 -0.022818 -0.114656 1.961232 1.369899 0.169875 1.851320 0.200458 0.791006 0.000000 0.000000 0.000000 
-1825.638916 922.855103 1057.141968 4.413349 -1.555889 1.846959 -0.394254 5.435449 -1.747091 -0.272221 -1.066579 0.423788 -0.319402 0.981146 -0.274323 0.808841 4.880889 -2.210788 0.000000 0.000000 0.000000 0.344286 -0.045691 -0.251268 0.149016 -0.005707 0.350752 0.272341 -2.779141 -0.639266 0.000000 0.000000 0.000000 1.840428 -0.293724 -0.373039 -0.196202 -0.564202 -1.028136 -0.192334 -2.687125 0.239270 0.000000 0.000000 0.000000 1.493990 0.943572 -4.504858 1.417955 7.051944 0.880524 1.157813 -7.084920 0.099729 0.000000 0.000000 0.000000 1.891610 -0.023291 -0.104379 1.955734 1.375707 0.165442 1.845779 0.206048 0.787436 0.000000 0.000000 0.000000 
-1825.825562 922.865051 1057.155029 4.427823 -1.575174 1.836325 -0.392859 5.423856 -1.744874 -0.270959 -1.064466 0.421828 -0.317882 0.978448 -0.272455 0.814859 4.885577 -2.223546 0.000000 0.000000 0.000000 0.372518 0.034375 -0.242809 0.160376 0.079080 0.453168 0.239054 -2.603823 -0.692642 0.000000 0.000000 0.000000 1.848573 -0.280560 -0.384113 -0.209663 -0.553409 -1.110858 -0.233222 -2.800768 0.090614 0.000000 0.000000 0.000000 1.489389 0.964179 -4.494829 1.412321 7.033543 0.882765 1.153008 -7.074976 0.098215 0.000000 0.000000 0.000000 1.887866 -0.022702 -0.092731 1.953664 1.387360 0.163117 1.843178 0.208791 0.785738 0.000000 0.000000 0.000000 
-1826.019409 922.865295 1057.166992 4.434268 -1.595515 1.824514 -0.390298 5.412963 -1.739216 -0.268876 -1.061269 0.418402 -0.315414 0.976229 -0.270357 0.821039 4.889359 -2.236436 0.000000 0.000000 0.000000 0.402252 0.117626 -0.232944 0.171445 0.167221 0.555774 0.203333 -2.420628 -0.753151 0.000000 0.000000 0.000000 1.857720 -0.265761 -0.392297 -0.218718 -0.540661 -1.170591 -0.263953 -2.893588 -0.017174 0.000000 0.000000 0.000000 1.487443 0.988694 -4.481515 1.409243 7.007545 0.882192 1.150367 -7.062761 0.097796 0.000000 0.000000 0.000000 1.886538 -0.021922 -0.079942 1.954173 1.402318 0.162315 1.842842 0.209377 0.785477 0.000000 0.000000 0.000000 
-1826.229492 922.878113 1057.185059 4.436085 -1.614053 1.812037 -0.389953 5.403713 -1.730800 -0.269085 -1.060326 0.415830 -0.315260 0.975974 -0.267988 0.829500 4.893350 -2.253788 0.000000 0.000000 0.000000 0.432436 0.197874 -0.223461 0.180159 0.252342 0.646959 0.168426 -2.238081 -0.809076 0.000000 0.000000 0.000000 1.872979 -0.252933 -0.401995 -0.223007 -0.530296 -1.202135 -0.281662 -2.951081 -0.077098 0.000000 0.000000 0.000000 1.487922 1.019983 -4.473220 1.407100 6.961939 0.889801 1.149688 -7.041683 0.098761 0.000000 0.000000 0.000000 1.887014 -0.020224 -0.068628 1.955764 1.410965 0.163985 1.844458 0.215030 0.785100 0.000000 0.000000 0.000000 
-1826.458618 922.923340 1057.211060 4.433823 -1.629915 1.798304 -0.392428 5.394894 -1.715825 -0.272543 -1.061419 0.413082 -0.318362 0.978335 -0.266244 0.839779 4.900284 -2.275024 0.000000 0.000000 0.000000 0.462557 0.273037 -0.214970 0.185899 0.332292 0.723354 0.134389 -2.052731 -0.857444 0.000000 0.000000 0.000000 1.896516 -0.243392 -0.414637 -0.222603 -0.523954 -1.205057 -0.283848 -2.969676 -0.078771 0.000000 0.000000 0.000000 1.491704 1.064564 -4.473942 1.405606 6.882146 0.911419 1.151530 -7.005302 0.101738 0.000000 0.000000 0.000000 1.889087 -0.015501 -0.059760 1.957617 1.407307 0.168796 1.847775 0.228128 0.784036 0.000000 0.000000 0.000000 
-1826.704956 922.981995 1057.240967 4.426264 -1.644021 1.783914 -0.396016 5.387866 -1.696726 -0.277461 -1.064641 0.409508 -0.322867 0.983060 -0.264754 0.850923 4.906103 -2.297712 0.000000 0.000000 0.000000 0.490868 0.345229 -0.207111 0.189441 0.409014 0.788961 0.101278 -1.868245 -0.900724 0.000000 0.000000 0.000000 1.924201 -0.236379 -0.426455 -0.217730 -0.520300 -1.181514 -0.272947 -2.953171 -0.032475 0.000000 0.000000 0.000000 1.498098 1.115884 -4.479815 1.405213 6.782616 0.941301 1.155523 -6.960865 0.106136 0.000000 0.000000 0.000000 1.893077 -0.009860 -0.052442 1.960663 1.397531 0.176219 1.853072 0.245282 0.783068 0.000000 0.000000 0.000000 
-1826.972046 923.024719 1057.274048 4.412002 -1.656225 1.769942 -0.399347 5.383790 -1.679620 -0.281979 -1.067440 0.406452 -0.326968 0.987728 -0.262643 0.861891 4.909961 -2.319687 0.000000 0.000000 0.000000 0.514863 0.414461 -0.200803 0.190723 0.482240 0.842658 0.072532 -1.704041 -0.934730 0.000000 0.000000 0.000000 1.950587 -0.232612 -0.433277 -0.208980 -0.519341 -1.133811 -0.252483 -2.898637 0.043096 0.000000 0.000000 0.000000 1.506514 1.157393 -4.485692 1.407511 6.694146 0.971800 1.162011 -6.921039 0.111354 0.000000 0.000000 0.000000 1.899205 -0.007990 -0.044512 1.966318 1.390186 0.183185 1.860765 0.262754 0.783109 0.000000 0.000000 0.000000 
-1827.267456 923.037720 1057.307007 4.388630 -1.667055 1.757498 -0.399723 5.386882 -1.668114 -0.282988 -1.069216 0.405602 -0.327866 0.990070 -0.262609 0.870458 4.909152 -2.336167 0.000000 0.000000 0.000000 0.527923 0.481801 -0.194119 0.189500 0.552247 0.883652 0.050115 -1.567474 -0.954423 0.000000 0.000000 0.000000 1.971548 -0.234442 -0.429237 -0.196745 -0.522871 -1.062140 -0.222247 -2.801372 0.147038 0.000000 0.000000 0.000000 1.517495 1.184982 -4.490473 1.413583 6.624588 1.000376 1.171569 -6.891673 0.117302 0.000000 0.000000 0.000000 1.908218 -0.011560 -0.036156 1.975696 1.389377 0.189337 1.871494 0.277998 0.784943 0.000000 0.000000 0.000000 
-1827.583618 923.035767 1057.342041 4.358297 -1.676006 1.745589 -0.399258 5.393530 -1.657477 -0.283236 -1.071660 0.403563 -0.327850 0.993068 -0.261536 0.878348 4.905539 -2.350840 0.000000 0.000000 0.000000 0.535786 0.546370 -0.189724 0.186165 0.618865 0.913205 0.032297 -1.451684 -0.964308 0.000000 0.000000 0.000000 1.989408 -0.239715 -0.420346 -0.180674 -0.529051 -0.965883 -0.182551 -2.665691 0.280091 0.000000 0.000000 0.000000 1.530519 1.202875 -4.495545 1.422309 6.565904 1.029824 1.183563 -6.867858 0.123990 0.000000 0.000000 0.000000 1.919371 -0.018793 -0.027564 1.987605 1.390826 0.195499 1.884596 0.293722 0.787744 0.000000 0.000000 0.000000 
-1827.901978 923.025574 1057.378052 4.325345 -1.681036 1.733955 -0.400991 5.393152 -1.647316 -0.285756 -1.070470 0.401426 -0.330122 0.992756 -0.260537 0.885210 4.903193 -2.363455 0.000000 0.000000 0.000000 0.541004 0.606721 -0.188759 0.182037 0.680941 0.935282 0.016861 -1.352856 -0.973818 0.000000 0.000000 0.000000 2.002887 -0.241231 -0.409155 -0.161010 -0.530507 -0.851090 -0.137657 -2.503467 0.426910 0.000000 0.000000 0.000000 1.543570 1.205639 -4.501250 1.432096 6.526692 1.060404 1.196446 -6.850928 0.130652 0.000000 0.000000 0.000000 1.931444 -0.030054 -0.018261 2.000812 1.391993 0.200577 1.898986 0.310574 0.790900 0.000000 0.000000 0.000000 
-1828.212524 923.006042 1057.413940 4.288240 -1.679911 1.722422 -0.404941 5.381355 -1.637059 -0.290690 -1.066782 0.399475 -0.334779 0.988836 -0.258496 0.892097 4.903335 -2.376291 0.000000 0.000000 0.000000 0.544731 0.664454 -0.196384 0.178103 0.740403 0.954881 0.003562 -1.272461 -0.985547 0.000000 0.000000 0.000000 2.009258 -0.236222 -0.397858 -0.137103 -0.524045 -0.715646 -0.087995 -2.312582 0.584658 0.000000 0.000000 0.000000 1.556436 1.185190 -4.509587 1.443016 6.519009 1.096578 1.210464 -6.848982 0.136912 0.000000 0.000000 0.000000 1.944480 -0.045349 -0.006696 2.015452 1.390074 0.202522 1.914803 0.328519 0.794481 0.000000 0.000000 0.000000 
-1828.524292 922.978394 1057.452026 4.248625 -1.674475 1.711139 -0.411233 5.362447 -1.627157 -0.298015 -1.062454 0.397729 -0.341909 0.984735 -0.257339 0.897524 4.905442 -2.386302 0.000000 0.000000 0.000000 0.547056 0.717816 -0.206890 0.173251 0.795280 0.966343 -0.007231 -1.209157 -0.996489 0.000000 0.000000 0.000000 2.010405 -0.227683 -0.384985 -0.109526 -0.512972 -0.560185 -0.033198 -2.094080 0.756151 0.000000 0.000000 0.000000 1.569294 1.149288 -4.518378 1.454991 6.530601 1.133727 1.225351 -6.853301 0.143171 0.000000 0.000000 0.000000 1.958172 -0.064917 0.005549 2.031113 1.387542 0.203501 1.931724 0.348350 0.798185 0.000000 0.000000 0.000000 
